<svg width="4984" height="1000" viewBox="0 0 4984 1000" fill="none" xmlns="http://www.w3.org/2000/svg">
<path d="M3551.54 432.823C3552.84 435.556 3555.59 437.298 3558.62 437.298H3658.46C3663.69 437.298 3667.45 432.277 3665.98 427.259C3634.56 319.831 3535.31 241.352 3417.7 241.352H3402.03C3259.18 241.352 3143.38 357.153 3143.38 500V531.352C3143.38 674.199 3259.18 790 3402.03 790H3417.7C3535.31 790 3634.56 711.52 3665.98 604.093C3667.45 599.075 3663.69 594.054 3658.46 594.054H3558.62C3555.59 594.054 3552.84 595.796 3551.54 598.529C3526.37 651.507 3472.39 688.108 3409.87 688.108C3323.29 688.108 3253.11 617.926 3253.11 531.352V500C3253.11 413.426 3323.29 343.243 3409.87 343.243C3472.39 343.243 3526.37 379.844 3551.54 432.823Z" fill="#333333"/>
<path fill-rule="evenodd" clip-rule="evenodd" d="M4970.89 651.516C4972.68 646.419 4968.9 641.081 4963.5 641.081H4867.67C4865.09 641.081 4862.68 642.35 4861.21 644.474C4842.85 671.15 4813.84 688.108 4781.45 688.108C4736.6 688.108 4698.03 655.443 4685.65 609.73H4974.15C4978.15 609.73 4981.51 606.719 4981.95 602.744C4982.82 594.747 4983.27 586.616 4983.27 578.378C4983.27 461.871 4893.27 366.757 4781.45 366.757C4669.62 366.757 4579.62 461.871 4579.62 578.378C4579.62 694.885 4669.62 790 4781.45 790C4868.6 790 4942.57 732.144 4970.89 651.516ZM4781.45 468.649C4819.59 468.649 4853.14 492.229 4869.98 527.433H4692.92C4709.75 492.229 4743.3 468.649 4781.45 468.649Z" fill="#333333"/>
<path d="M3727 386C3727 381.582 3730.58 378 3735 378H3821C3825.42 378 3829 381.582 3829 386V612.5C3829 654.197 3862.8 688 3904.5 688C3946.2 688 3980 654.197 3980 612.5V386C3980 381.582 3983.58 378 3988 378H4074C4078.42 378 4082 381.582 4082 386V770C4082 774.418 4078.42 778 4074 778H3988C3983.58 778 3980 774.418 3980 770V764.6C3954.53 780.689 3924.35 790 3892 790C3800.87 790 3727 716.127 3727 625V386Z" fill="#333333"/>
<path fill-rule="evenodd" clip-rule="evenodd" d="M3072.22 651.516C3074.01 646.419 3070.22 641.081 3064.82 641.081H2968.99C2966.42 641.081 2964 642.35 2962.54 644.474C2944.17 671.15 2915.17 688.108 2882.77 688.108C2837.92 688.108 2799.35 655.443 2786.97 609.73H3075.48C3079.48 609.73 3082.84 606.719 3083.27 602.744C3084.15 594.747 3084.59 586.616 3084.59 578.378C3084.59 461.871 2994.59 366.757 2882.77 366.757C2770.95 366.757 2680.95 461.871 2680.95 578.378C2680.95 694.885 2770.95 790 2882.77 790C2969.93 790 3043.9 732.144 3072.22 651.516ZM2882.77 468.649C2920.92 468.649 2954.47 492.229 2971.3 527.433H2794.24C2811.07 492.229 2844.62 468.649 2882.77 468.649Z" fill="#333333"/>
<path d="M1342 770.243C1342 774.661 1345.58 778.243 1350 778.243H1435.89C1440.31 778.243 1443.89 774.661 1443.89 770.243V592.206L1495.37 540.725L1692.27 775.381C1693.79 777.193 1696.04 778.239 1698.4 778.239H1810.52C1817.32 778.239 1821.02 770.302 1816.65 765.096L1567.7 468.401L1812.44 223.657C1817.48 218.617 1813.91 210 1806.78 210H1685.31C1683.19 210 1681.16 210.843 1679.66 212.343L1443.89 448.109V218C1443.89 213.582 1440.31 210 1435.89 210H1350C1345.58 210 1342 213.582 1342 218V770.243Z" fill="#333333"/>
<path d="M1828 386C1828 381.582 1831.58 378 1836 378H1922C1926.42 378 1930 381.582 1930 386V612.5C1930 654.197 1963.8 688 2005.5 688C2047.2 688 2081 654.197 2081 612.5V386C2081 381.582 2084.58 378 2089 378H2175C2179.42 378 2183 381.582 2183 386V770C2183 774.418 2179.42 778 2175 778H2089C2084.58 778 2081 774.418 2081 770V764.6C2055.53 780.689 2025.35 790 1993 790C1901.87 790 1828 716.127 1828 625V386Z" fill="#333333"/>
<path fill-rule="evenodd" clip-rule="evenodd" d="M2254 210C2249.58 210 2246 213.582 2246 218V770C2246 774.418 2249.58 778 2254 778H2340C2344.42 778 2348 774.418 2348 770V757.487C2378.39 778.082 2414.4 790 2453 790C2561.8 790 2650 695.308 2650 578.5C2650 461.692 2561.8 367 2453 367C2414.4 367 2378.39 378.918 2348 399.513V218C2348 213.582 2344.42 210 2340 210H2254ZM2348 578.5C2348 638.975 2392.77 688 2448 688C2503.23 688 2548 638.975 2548 578.5C2548 518.025 2503.23 469 2448 469C2392.77 469 2348 518.025 2348 578.5Z" fill="#333333"/>
<path fill-rule="evenodd" clip-rule="evenodd" d="M4153 210C4148.58 210 4145 213.582 4145 218V770C4145 774.418 4148.58 778 4153 778H4239C4243.42 778 4247 774.418 4247 770V757.487C4277.39 778.082 4313.4 790 4352 790C4460.8 790 4549 695.308 4549 578.5C4549 461.692 4460.8 367 4352 367C4313.4 367 4277.39 378.918 4247 399.513V218C4247 213.582 4243.42 210 4239 210H4153ZM4247 578.5C4247 638.975 4291.77 688 4347 688C4402.23 688 4447 638.975 4447 578.5C4447 518.025 4402.23 469 4347 469C4291.77 469 4247 518.025 4247 578.5Z" fill="#333333"/>
<path d="M554.586 39C564.593 21.6667 552.084 0 532.069 0H346.41C310.684 0 277.671 19.0599 259.808 50L28.8676 450C11.0043 480.94 11.0042 519.06 28.8675 550L259.808 950C277.671 980.94 310.684 1000 346.41 1000H447.276C456.208 1000 464.461 995.235 468.927 987.5L612.399 739C622.406 721.667 609.897 700 589.882 700H427.239C412.949 700 399.743 692.376 392.598 680L300.222 520C293.077 507.624 293.077 492.376 300.222 480L386.186 331.106L386 330.999L554.586 39Z" fill="#0056FF"/>
<path d="M564.401 300C544.386 300 531.877 278.333 541.884 261L685.356 12.5C689.822 4.76496 698.075 0 707.006 0H808.29C844.017 0 877.03 19.06 894.893 50.0001L1125.83 450C1143.7 480.94 1143.7 519.06 1125.83 550L894.893 950C877.03 980.94 844.017 1000 808.29 1000H622.214C602.199 1000 589.69 978.333 599.697 961L750.385 700H750.555L854.478 520C861.624 507.624 861.624 492.376 854.478 480L762.102 320C754.957 307.624 741.752 300 727.461 300H564.401Z" fill="#0056FF"/>
</svg>